<svg width="35" height="49" viewBox="0 0 35 49" fill="none" xmlns="http://www.w3.org/2000/svg">
<path d="M34.7402 49.0957C23.1983 49.0957 11.6563 49.0957 0.0957031 49.0957C0.0957031 34.7701 0.0957031 20.4446 0.140555 6.07415C2.57123 6.0293 4.95706 6.0293 7.38058 6.0293C7.38058 4.98441 7.38058 3.98826 7.38058 2.96682C7.49535 2.96682 7.57223 2.96682 7.64911 2.96682C9.40308 2.96681 11.1571 2.96271 12.911 2.97098C13.1916 2.9723 13.326 2.9162 13.4522 2.61102C13.6308 2.17885 13.9298 1.78087 14.2393 1.42159C14.8492 0.713496 15.6847 0.364681 16.5566 0.0957031C17.101 0.0957031 17.6454 0.0957031 18.2464 0.131685C19.7929 0.443985 20.8071 1.33184 21.4176 2.67815C21.5331 2.93301 21.6411 2.96819 21.8557 2.96769C22.7642 2.96557 23.6728 2.9668 24.5814 2.9668C25.5327 2.9668 26.484 2.9668 27.4724 2.9668C27.4724 4.00582 27.4724 5.00174 27.4724 6.03335C29.9083 6.03335 32.3069 6.03335 34.7402 6.03335C34.7402 20.4119 34.7402 34.7538 34.7402 49.0957ZM20.1455 11.7715C15.8938 11.7715 11.642 11.7715 7.35215 11.7715C7.35215 10.7848 7.35215 9.85218 7.35215 8.92837C5.87122 8.92837 4.42877 8.92837 2.99429 8.92837C2.99429 21.3721 2.99429 33.7879 2.99429 46.1974C12.6304 46.1974 22.2391 46.1974 31.8424 46.1974C31.8424 33.7544 31.8424 21.3386 31.8424 8.92744C30.3731 8.92744 28.9307 8.92744 27.4503 8.92744C27.4503 9.88655 27.4503 10.8192 27.4503 11.7715C25.0218 11.7715 22.6315 11.7715 20.1455 11.7715ZM16.7144 3.24414C16.3525 3.48434 16.1006 3.78509 16.0736 4.24897C16.0429 4.77544 15.98 5.30004 15.9277 5.86209C14.0312 5.86209 12.1423 5.86209 10.2714 5.86209C10.2714 6.89603 10.2714 7.89189 10.2714 8.8703C15.0618 8.8703 19.821 8.8703 24.5655 8.8703C24.5655 7.84415 24.5655 6.84834 24.5655 5.8157C22.6464 5.8157 20.7574 5.8157 18.8535 5.8157C18.8535 5.41269 18.8727 5.04611 18.8501 4.68212C18.7658 3.32468 17.8635 2.76209 16.7144 3.24414Z" fill="#42A3B1"/>
<path d="M12.848 35.8647C13.3128 36.3225 13.7536 36.7563 14.1882 37.1841C13.5681 37.7963 12.9814 38.3756 12.3961 38.9535C13.0491 39.5857 13.6497 40.1672 14.2146 40.714C13.4215 41.5055 12.7173 42.2084 11.9839 42.9403C11.4521 42.4019 10.864 41.8067 10.2686 41.204C9.65382 41.834 9.07765 42.4243 8.53948 42.9757C7.78931 42.2255 7.08577 41.522 6.34834 40.7845C6.88456 40.2632 7.48449 39.6799 8.08023 39.1007C7.44485 38.4741 6.85763 37.895 6.31152 37.3565C7.06531 36.604 7.76928 35.9012 8.51918 35.1526C9.01928 35.6909 9.58901 36.304 10.1528 36.9108C10.8052 36.2495 11.3841 35.6627 12.1006 34.9365C12.3739 35.2781 12.599 35.5594 12.848 35.8647Z" fill="#42A3B1"/>
<path d="M12.6089 17.2983C13.384 16.518 14.1351 15.7615 14.8556 15.0359C15.5817 15.7641 16.2841 16.4686 16.9616 17.148C14.745 19.3642 12.4836 21.6251 10.2558 23.8524C8.98876 22.5856 7.6854 21.2825 6.42334 20.0207C7.06633 19.379 7.77028 18.6766 8.51192 17.9365C9.01338 18.4689 9.58713 19.078 10.1908 19.719C11.0367 18.8722 11.8108 18.0972 12.6089 17.2983Z" fill="#42A3B1"/>
<path d="M15.0444 23.7057C15.7346 24.3891 16.4014 25.0472 17.0418 25.6793C14.745 27.9768 12.4843 30.2382 10.2575 32.4657C8.99005 31.1986 7.68672 29.8956 6.42529 28.6346C7.06763 27.9939 7.77164 27.2917 8.50302 26.5622C9.00665 27.088 9.58544 27.6922 10.2086 28.3427C10.8762 27.6642 11.4741 27.0514 12.0777 26.4442C12.9317 25.5851 13.7871 24.7272 14.6503 23.8774C14.7458 23.7833 14.896 23.7448 15.0444 23.7057Z" fill="#42A3B1"/>
<path d="M27.8483 17.5137C28.2448 17.5137 28.5937 17.5137 28.9702 17.5137C28.9702 18.4652 28.9702 19.3972 28.9702 20.3571C26.1 20.3571 23.2224 20.3571 20.3169 20.3571C20.3169 19.433 20.3169 18.501 20.3169 17.5137C22.8066 17.5137 25.3037 17.5137 27.8483 17.5137Z" fill="#42A3B1"/>
<path d="M25.266 28.998C26.5237 28.998 27.7336 28.998 28.9709 28.998C28.9709 29.9503 28.9709 30.8823 28.9709 31.8419C26.0996 31.8419 23.2221 31.8419 20.3169 31.8419C20.3169 30.9169 20.3169 29.9849 20.3169 28.998C21.9461 28.998 23.5821 28.998 25.266 28.998Z" fill="#42A3B1"/>
<path d="M28.6024 40.4824C28.8986 40.4448 29.0133 40.5105 29.0058 40.8041C28.9845 41.6321 28.9984 42.4609 28.9984 43.3214C26.109 43.3214 23.2312 43.3214 20.3213 43.3214C20.3213 42.4103 20.3213 41.478 20.3213 40.4824C23.0531 40.4824 25.8046 40.4824 28.6024 40.4824Z" fill="#42A3B1"/>
<path d="M25.4573 23.2559C26.6512 23.2559 27.7972 23.2559 28.9707 23.2559C28.9707 24.2079 28.9707 25.1399 28.9707 26.0995C27.0569 26.0995 25.1363 26.0995 23.188 26.0995C23.188 25.1749 23.188 24.2429 23.188 23.2559C23.9233 23.2559 24.6663 23.2559 25.4573 23.2559Z" fill="#42A3B1"/>
<path d="M27.1799 37.6113C25.8265 37.6113 24.521 37.6113 23.188 37.6113C23.188 36.6593 23.188 35.7274 23.188 34.7677C25.1017 34.7677 27.0223 34.7677 28.9707 34.7677C28.9707 35.6923 28.9707 36.6242 28.9707 37.6113C28.3947 37.6113 27.8112 37.6113 27.1799 37.6113Z" fill="#42A3B1"/>
</svg>
